<svg width="202" height="48" viewBox="0 0 202 48" fill="none" xmlns="http://www.w3.org/2000/svg">
<path fill-rule="evenodd" clip-rule="evenodd" d="M190.446 22.9207V35.8806H184.961V9.7207H190.446V18.7378C192.572 17.435 194.663 16.5778 196.446 16.5778C199.772 16.5778 202 18.155 202 22.3035V35.8806H196.515V23.3664C196.515 22.1321 196.103 21.515 194.766 21.515C193.532 21.515 191.852 22.2007 190.446 22.9207ZM69.1923 28.269V35.8804H63.5352V11.1948H72.1066C78.0723 11.1948 82.2208 13.3205 82.2208 19.8348C82.2208 21.6519 81.4322 24.8062 78.5865 26.7605L83.0094 35.8804H76.6665C76.1866 34.8656 75.7175 33.8507 75.2485 32.8359L75.2485 32.8358L75.2484 32.8357L75.2483 32.8356L75.2483 32.8355L75.2482 32.8354L75.2482 32.8352L75.2481 32.8351L75.2481 32.835C74.5447 31.313 73.8413 29.791 73.1008 28.269H69.1923ZM69.1923 23.4728H72.5866C75.5009 23.4728 76.4266 21.3128 76.4266 19.6328C76.4266 17.9528 75.5009 15.9985 72.5866 15.9985H69.1923V23.4728ZM92.9747 36.2946C95.6147 36.2946 98.0147 35.8489 100.655 35.0947V30.4318C98.529 31.049 95.9232 31.5289 94.3804 31.5289C91.089 31.5289 89.1347 30.6375 89.0661 27.929H100.963V25.4947C100.963 20.729 99.1118 16.5804 92.5633 16.5804C86.9747 16.5804 83.3061 19.7347 83.3061 26.4547C83.3061 33.2089 86.6661 36.2946 92.9747 36.2946ZM88.9989 24.0167H95.4103C95.376 22.5767 94.8617 20.8281 92.2217 20.8281C90.1989 20.8281 88.9989 22.3367 88.9989 24.0167ZM108.605 35.8832V22.9233C109.736 22.169 111.211 21.5175 112.342 21.5175C113.679 21.5175 114.228 22.1347 114.228 23.369V35.8832H119.713V22.9233C120.776 22.1347 122.148 21.5175 123.451 21.5175C124.788 21.5175 125.336 22.1347 125.336 23.369V35.8832H130.822V22.3061C130.822 18.1576 128.388 16.5804 125.371 16.5804C123.279 16.5804 121.359 17.4718 119.062 19.1518C118.136 17.3347 116.319 16.5804 114.262 16.5804C112.273 16.5804 110.388 17.5061 108.365 18.8776H108.228V16.9918H103.119V35.8832H108.605ZM148.262 35.4718C146.307 36.0547 144.49 36.2946 142.296 36.2946C137.599 36.2946 132.73 34.2032 132.73 26.4547C132.73 18.7061 137.599 16.5804 142.296 16.5804C144.49 16.5804 146.307 16.8204 148.262 17.4033V22.1347C146.582 21.6204 144.833 21.3461 143.222 21.3461C140.136 21.3461 138.319 22.5804 138.319 26.4547C138.319 29.4375 139.725 31.5632 143.222 31.5632C144.833 31.5632 146.582 31.2547 148.262 30.7747V35.4718ZM155.111 36.1575C156.962 36.1575 158.882 35.4718 160.905 34.0318H161.042L161.454 35.8832H166.117V23.609C166.117 18.9118 163.134 16.5804 158.265 16.5804C156.174 16.5804 153.259 16.8547 150.791 17.369V21.8947C152.574 21.3804 155.317 21.0375 156.894 21.0375C159.808 21.0375 160.631 21.9633 160.631 23.2318V24.1918H156.551C151.751 24.1918 149.214 26.5575 149.214 30.0204C149.214 34.1004 151.819 36.1575 155.111 36.1575ZM154.735 29.6104C154.735 30.9818 155.695 31.6332 156.998 31.6332C158.335 31.6332 159.638 31.2218 160.632 30.639V27.759H157.512C155.592 27.759 154.735 28.4104 154.735 29.6104ZM174.853 36.2946C180.167 36.2946 183.116 34.3061 183.116 29.8832C183.116 25.6287 180.055 24.7168 177.331 24.1954L176.945 24.1233C175.093 23.7804 173.688 23.4718 173.688 22.5461C173.688 21.5861 174.647 21.209 176.91 21.209C178.419 21.209 180.579 21.5175 181.916 21.7575L182.087 17.0947C180.407 16.7518 178.145 16.5804 176.293 16.5804C171.322 16.5804 168.099 18.2604 168.099 22.8547C168.099 26.9347 171.185 27.9632 173.756 28.4775C174.055 28.5383 174.347 28.593 174.629 28.6458C176.257 28.9504 177.527 29.1881 177.527 30.1232C177.527 31.049 176.773 31.7004 174.579 31.7004C172.968 31.7004 170.362 31.3575 168.408 31.049L168.27 35.8489C170.019 36.1232 172.933 36.2946 174.853 36.2946Z" fill="#373434"/>
<path fill-rule="evenodd" clip-rule="evenodd" d="M2.06626 14.0535C-1.10896 21.0028 0.595175 28.8256 1.2418 31.2114C1.36276 31.6577 1.75607 31.9612 2.21778 31.9864C2.6815 32.0117 3.31825 32.0419 4.01814 32.0618C4.37296 32.0719 4.7286 32.079 5.06217 32.0839C5.89656 32.0962 6.46674 31.2223 6.1858 30.4365C5.6234 28.8636 4.90794 26.3855 4.90794 23.958C4.90794 19.9587 6.45878 16.2078 6.45878 16.2078C6.45878 16.2078 6.89615 16.7027 6.89615 17.8604C6.89615 19.0182 7.16286 23.8913 8.93922 25.6157C10.7156 27.3402 13.2923 27.5254 14.0732 27.1692C14.8542 26.813 15.0605 25.7576 15.0605 24.4015C15.0605 23.0454 15.0886 22.1489 15.831 21.7667C16.5733 21.3845 17.8853 19.9504 18.4347 18.475C18.984 16.9997 20.1258 17.3068 21.0618 16.2078C21.9978 15.1088 22.0641 12.303 19.2648 10.658C16.4654 9.01301 12.4431 10.4486 12.4431 10.4486C12.4431 10.4486 11.9283 10.5523 11.549 10.4486C11.1698 10.345 10.7198 10.0885 10.7198 10.0885C10.7198 10.0885 14.2388 6.82863 18.7082 5.50079C18.7082 5.50079 18.9467 5.85298 19.7628 6.28895C20.5789 6.72491 20.9239 6.62265 21.1453 6.87186C21.3667 7.12107 21.7337 7.49794 22.0451 9.24343C22.3565 10.9889 23.3511 11.6765 24.2793 11.5516C25.2075 11.4266 25.9174 10.0885 25.9174 10.0885C25.9174 10.0885 26.6405 8.83992 27.8128 8.24762C28.9852 7.65532 29.7891 6.71105 30.1109 5.92748C30.1142 5.91959 30.1211 5.90445 30.1211 5.90445C30.1211 5.90445 30.716 6.10207 31.4779 6.44363C32.2399 6.78519 32.8572 7.1265 32.8572 7.1265C32.8572 7.1265 31.4388 11.1477 30.1929 12.4583C28.947 13.769 27.6122 14.2637 27.1396 15.7722C26.6671 17.2807 26.6671 18.8559 27.5921 19.7531C28.5171 20.6503 29.6123 20.3835 30.1109 20.9275C30.6096 21.4715 29.6696 22.4088 28.4046 22.9962C27.8508 23.2534 26.6054 24.1828 26.123 25.6157C26.0315 25.8874 26.0064 26.31 26.0115 26.7382C26.0207 27.5012 26.8168 27.9421 27.4959 27.5942C28.6717 26.9917 30.431 26.0175 32.0762 24.8226C33.8387 23.5426 35.4214 22.0449 36.3566 21.1061C36.8369 20.624 37.6363 20.6284 38.1041 21.1226C38.8704 21.9321 40.1096 23.199 41.6727 24.6498C43.1857 26.0541 44.7156 27.2058 45.7682 27.9468C46.4173 28.4039 47.2716 28.0292 47.3505 27.2392C47.548 25.2619 47.6647 21.7015 46.6434 17.8604C45.0958 12.0401 42.7304 9.24343 42.7304 9.24343C42.7304 9.24343 37.1222 2.3394 29.5939 0.660578C22.0655 -1.01825 15.1256 1.56958 15.1256 1.56958C15.1256 1.56958 5.8667 5.73583 2.06626 14.0535Z" fill="#373434"/>
<path fill-rule="evenodd" clip-rule="evenodd" d="M6.81499 37.3307C5.82902 37.3556 5.33097 38.4873 6.05455 39.1576C9.48065 42.3309 17.6284 48.5141 28.6445 47.9714C32.8211 47.7657 36.5669 46.9173 40.2465 45.6029C45.4789 43.7338 49.7775 40.0116 51.789 38.0572C52.3834 37.4797 52.1297 36.5026 51.3516 36.2173C49.5002 35.5385 46.4688 34.3037 44.1605 32.7578C41.6373 31.068 39.309 29.05 38.163 28.0143C37.7329 27.6256 37.0825 27.5986 36.6192 27.947C34.5905 29.4726 28.9277 33.414 22.3172 35.2635C16.6298 36.8548 10.2595 37.2436 6.81499 37.3307ZM37.1229 34.3343C28.1527 40.2902 17.0845 41.0585 17.0845 41.0585C17.0845 41.0585 22.7402 43.4102 29.7664 42.6473C36.7927 41.8844 43.0724 38.1831 43.0724 38.1831C43.0724 38.1831 41.0123 37.1392 40.15 36.5751C39.2878 36.0111 37.1229 34.3343 37.1229 34.3343Z" fill="#373434"/>
</svg>
